# xmcd
#
# Track frame offsets:
#	150
#	16849
#	33605
#	50069
#	65733
#	86470
#	105504
#	119378
#	139121
#	152746
#	165091
#
# Disc length: 2463 seconds
#
# Revision: 1
# Processed by: cddbd v1.5.2PL0 Copyright (c) Steve Scherf et al.
# Submitted via: audiograbber 1.83.01
#
DISCID=88099d0b
DTITLE=Rodney Crowell and Emmylou Harris - The Traveling Kind
DYEAR=2015
DGENRE=Country
TTITLE0=The Traveling Kind
TTITLE1=No Memories Hanging Round
TTITLE2=Bring It On Home to Memphis
TTITLE3=You Can't Say We Didn't Try
TTITLE4=The Weight of the World
TTITLE5=Higher Mountains
TTITLE6=I Just Wanted to See You So Bad
TTITLE7=Just Pleasing You
TTITLE8=If You Lived Here You'd Be Home Now
TTITLE9=Her Hair Was Red
TTITLE10=Le Danse de la Joie
EXTD=
EXTT0=
EXTT1=
EXTT2=
EXTT3=
EXTT4=
EXTT5=
EXTT6=
EXTT7=
EXTT8=
EXTT9=
EXTT10=
PLAYORDER=
